<svg xmlns="http://www.w3.org/2000/svg" viewBox="0 0 1650.675 2046" width="1650.675" height="2046" style="--bg:#ffffff;--fg:#1f2328;--line:#d1d9e0;--accent:#0969da;--muted:#59636e;background:var(--bg)">
<style>
  @import url('https://fonts.googleapis.com/css2?family=Inter:wght@400;500;600;700&amp;display=swap');
  text { font-family: 'Inter', system-ui, sans-serif; }
  svg {
    /* Derived from --bg and --fg (overridable via --line, --accent, etc.) */
    --_text:          var(--fg);
    --_text-sec:      var(--muted, color-mix(in srgb, var(--fg) 60%, var(--bg)));
    --_text-muted:    var(--muted, color-mix(in srgb, var(--fg) 40%, var(--bg)));
    --_text-faint:    color-mix(in srgb, var(--fg) 25%, var(--bg));
    --_line:          var(--line, color-mix(in srgb, var(--fg) 30%, var(--bg)));
    --_arrow:         var(--accent, color-mix(in srgb, var(--fg) 50%, var(--bg)));
    --_node-fill:     var(--surface, color-mix(in srgb, var(--fg) 3%, var(--bg)));
    --_node-stroke:   var(--border, color-mix(in srgb, var(--fg) 20%, var(--bg)));
    --_group-fill:    var(--bg);
    --_group-hdr:     color-mix(in srgb, var(--fg) 5%, var(--bg));
    --_inner-stroke:  color-mix(in srgb, var(--fg) 12%, var(--bg));
    --_key-badge:     color-mix(in srgb, var(--fg) 10%, var(--bg));
  }
</style>
<defs>
  <marker id="seq-arrow" markerWidth="8" markerHeight="4.8" refX="8" refY="2.4" orient="auto-start-reverse">
    <polygon points="0 0, 8 2.4, 0 4.8" fill="var(--_arrow)" />
  </marker>
  <marker id="seq-arrow-open" markerWidth="8" markerHeight="4.8" refX="8" refY="2.4" orient="auto-start-reverse">
    <polyline points="0 0, 8 2.4, 0 4.8" fill="none" stroke="var(--_arrow)" stroke-width="1" />
  </marker>
</defs>
<rect x="672.6500000000001" y="878" width="682.6999999999998" height="308" rx="0" ry="0" fill="none" stroke="var(--_node-stroke)" stroke-width="1" />
<rect x="672.6500000000001" y="878" width="92.55999999999999" height="18" fill="var(--_group-hdr)" stroke="var(--_node-stroke)" stroke-width="1" />
<text x="678.6500000000001" y="887" dy="0.35em" font-size="11" font-weight="600" fill="var(--_text-sec)">par [并发准备资源]</text>
<line x1="672.6500000000001" y1="994" x2="1355.35" y2="994" stroke="var(--_line)" stroke-width="0.75" stroke-dasharray="6 4" />
<line x1="672.6500000000001" y1="1098" x2="1355.35" y2="1098" stroke="var(--_line)" stroke-width="0.75" stroke-dasharray="6 4" />
<line x1="88.9" y1="70" x2="88.9" y2="2016" stroke="var(--_line)" stroke-width="0.75" stroke-dasharray="6 4" />
<line x1="243.12500000000003" y1="70" x2="243.12500000000003" y2="2016" stroke="var(--_line)" stroke-width="0.75" stroke-dasharray="6 4" />
<line x1="411.65000000000003" y1="70" x2="411.65000000000003" y2="2016" stroke="var(--_line)" stroke-width="0.75" stroke-dasharray="6 4" />
<line x1="583.75" y1="70" x2="583.75" y2="2016" stroke="var(--_line)" stroke-width="0.75" stroke-dasharray="6 4" />
<line x1="766.575" y1="70" x2="766.575" y2="2016" stroke="var(--_line)" stroke-width="0.75" stroke-dasharray="6 4" />
<line x1="956.5500000000001" y1="70" x2="956.5500000000001" y2="2016" stroke="var(--_line)" stroke-width="0.75" stroke-dasharray="6 4" />
<line x1="1121.5" y1="70" x2="1121.5" y2="2016" stroke="var(--_line)" stroke-width="0.75" stroke-dasharray="6 4" />
<line x1="1282.875" y1="70" x2="1282.875" y2="2016" stroke="var(--_line)" stroke-width="0.75" stroke-dasharray="6 4" />
<line x1="1440.675" y1="70" x2="1440.675" y2="2016" stroke="var(--_line)" stroke-width="0.75" stroke-dasharray="6 4" />
<line x1="1580.675" y1="70" x2="1580.675" y2="2016" stroke="var(--_line)" stroke-width="0.75" stroke-dasharray="6 4" />
<line x1="88.9" y1="90" x2="243.12500000000003" y2="90" stroke="var(--_line)" stroke-width="0.75" marker-end="url(#seq-arrow)" />
<text x="166.01250000000002" y="84" text-anchor="middle" font-size="11" font-weight="400" fill="var(--_text-muted)">POST /sandboxes</text>
<polyline points="243.12500000000003,130 273.125,130 273.125,150 243.12500000000003,150" fill="none" stroke="var(--_line)" stroke-width="0.75" marker-end="url(#seq-arrow)" />
<text x="279.125" y="140" dy="0.35em" font-size="11" font-weight="400" fill="var(--_text-muted)">解析 body / team / timeout / network</text>
<polyline points="243.12500000000003,200 273.125,200 273.125,220 243.12500000000003,220" fill="none" stroke="var(--_line)" stroke-width="0.75" marker-end="url(#seq-arrow)" />
<text x="279.125" y="210" dy="0.35em" font-size="11" font-weight="400" fill="var(--_text-muted)">ResolveAlias + Get(build)</text>
<polyline points="243.12500000000003,270 273.125,270 273.125,290 243.12500000000003,290" fill="none" stroke="var(--_line)" stroke-width="0.75" marker-end="url(#seq-arrow)" />
<text x="279.125" y="280" dy="0.35em" font-size="11" font-weight="400" fill="var(--_text-muted)">生成 envdAccessToken</text>
<line x1="243.12500000000003" y1="340" x2="411.65000000000003" y2="340" stroke="var(--_line)" stroke-width="0.75" marker-end="url(#seq-arrow)" />
<text x="327.38750000000005" y="334" text-anchor="middle" font-size="11" font-weight="400" fill="var(--_text-muted)">startSandbox()</text>
<polyline points="411.65000000000003,380 441.65000000000003,380 441.65000000000003,400 411.65000000000003,400" fill="none" stroke="var(--_line)" stroke-width="0.75" marker-end="url(#seq-arrow)" />
<text x="447.65000000000003" y="390" dy="0.35em" font-size="11" font-weight="400" fill="var(--_text-muted)">Reserve team concurrency</text>
<polyline points="411.65000000000003,450 441.65000000000003,450 441.65000000000003,470 411.65000000000003,470" fill="none" stroke="var(--_line)" stroke-width="0.75" marker-end="url(#seq-arrow)" />
<text x="447.65000000000003" y="460" dy="0.35em" font-size="11" font-weight="400" fill="var(--_text-muted)">构造 SandboxCreateRequest</text>
<polyline points="411.65000000000003,520 441.65000000000003,520 441.65000000000003,540 411.65000000000003,540" fill="none" stroke="var(--_line)" stroke-width="0.75" marker-end="url(#seq-arrow)" />
<text x="447.65000000000003" y="530" dy="0.35em" font-size="11" font-weight="400" fill="var(--_text-muted)">生成 trafficAccessToken</text>
<polyline points="411.65000000000003,590 441.65000000000003,590 441.65000000000003,610 411.65000000000003,610" fill="none" stroke="var(--_line)" stroke-width="0.75" marker-end="url(#seq-arrow)" />
<text x="447.65000000000003" y="600" dy="0.35em" font-size="11" font-weight="400" fill="var(--_text-muted)">PlaceSandbox(node)</text>
<line x1="411.65000000000003" y1="660" x2="583.75" y2="660" stroke="var(--_line)" stroke-width="0.75" marker-end="url(#seq-arrow)" />
<text x="497.70000000000005" y="654" text-anchor="middle" font-size="11" font-weight="400" fill="var(--_text-muted)">SandboxCreate(req)</text>
<line x1="583.75" y1="700" x2="766.575" y2="700" stroke="var(--_line)" stroke-width="0.75" marker-end="url(#seq-arrow)" />
<text x="675.1625" y="694" text-anchor="middle" font-size="11" font-weight="400" fill="var(--_text-muted)">gRPC Sandbox.Create</text>
<polyline points="766.575,740 796.575,740 796.575,760 766.575,760" fill="none" stroke="var(--_line)" stroke-width="0.75" marker-end="url(#seq-arrow)" />
<text x="802.575" y="750" dy="0.35em" font-size="11" font-weight="400" fill="var(--_text-muted)">节点容量校验</text>
<line x1="766.575" y1="810" x2="956.5500000000001" y2="810" stroke="var(--_line)" stroke-width="0.75" marker-end="url(#seq-arrow)" />
<text x="861.5625" y="804" text-anchor="middle" font-size="11" font-weight="400" fill="var(--_text-muted)">GetTemplate(buildID, snapshotFlag)</text>
<line x1="956.5500000000001" y1="850" x2="766.575" y2="850" stroke="var(--_line)" stroke-width="0.75" stroke-dasharray="6 4" marker-end="url(#seq-arrow)" />
<text x="861.5625" y="844" text-anchor="middle" font-size="11" font-weight="400" fill="var(--_text-muted)">rootfs + memfile + snapfile + metadata</text>
<line x1="766.575" y1="918" x2="1121.5" y2="918" stroke="var(--_line)" stroke-width="0.75" marker-end="url(#seq-arrow)" />
<text x="944.0375" y="912" text-anchor="middle" font-size="11" font-weight="400" fill="var(--_text-muted)">Get(networkConfig)</text>
<line x1="1121.5" y1="958" x2="766.575" y2="958" stroke="var(--_line)" stroke-width="0.75" stroke-dasharray="6 4" marker-end="url(#seq-arrow)" />
<text x="944.0375" y="952" text-anchor="middle" font-size="11" font-weight="400" fill="var(--_text-muted)">slot(ns/veth/tap/firewall)</text>
<line x1="766.575" y1="1022" x2="1282.875" y2="1022" stroke="var(--_line)" stroke-width="0.75" marker-end="url(#seq-arrow)" />
<text x="1024.725" y="1016" text-anchor="middle" font-size="11" font-weight="400" fill="var(--_text-muted)">Rootfs()</text>
<line x1="1282.875" y1="1062" x2="766.575" y2="1062" stroke="var(--_line)" stroke-width="0.75" stroke-dasharray="6 4" marker-end="url(#seq-arrow)" />
<text x="1024.725" y="1056" text-anchor="middle" font-size="11" font-weight="400" fill="var(--_text-muted)">NBD overlay ready</text>
<line x1="766.575" y1="1126" x2="1282.875" y2="1126" stroke="var(--_line)" stroke-width="0.75" marker-end="url(#seq-arrow)" />
<text x="1024.725" y="1120" text-anchor="middle" font-size="11" font-weight="400" fill="var(--_text-muted)">Memfile()</text>
<line x1="1282.875" y1="1166" x2="766.575" y2="1166" stroke="var(--_line)" stroke-width="0.75" stroke-dasharray="6 4" marker-end="url(#seq-arrow)" />
<text x="1024.725" y="1160" text-anchor="middle" font-size="11" font-weight="400" fill="var(--_text-muted)">UFFD serving ready</text>
<polyline points="766.575,1206 796.575,1206 796.575,1226 766.575,1226" fill="none" stroke="var(--_line)" stroke-width="0.75" marker-end="url(#seq-arrow)" />
<text x="802.575" y="1216" dy="0.35em" font-size="11" font-weight="400" fill="var(--_text-muted)">create cgroup</text>
<line x1="766.575" y1="1276" x2="1440.675" y2="1276" stroke="var(--_line)" stroke-width="0.75" marker-end="url(#seq-arrow)" />
<text x="1103.625" y="1270" text-anchor="middle" font-size="11" font-weight="400" fill="var(--_text-muted)">NewProcess()</text>
<polyline points="1440.675,1316 1470.675,1316 1470.675,1336 1440.675,1336" fill="none" stroke="var(--_line)" stroke-width="0.75" marker-end="url(#seq-arrow)" />
<text x="1476.675" y="1326" dy="0.35em" font-size="11" font-weight="400" fill="var(--_text-muted)">configure()</text>
<polyline points="1440.675,1386 1470.675,1386 1470.675,1406 1440.675,1406" fill="none" stroke="var(--_line)" stroke-width="0.75" marker-end="url(#seq-arrow)" />
<text x="1476.675" y="1396" dy="0.35em" font-size="11" font-weight="400" fill="var(--_text-muted)">setMetrics()</text>
<polyline points="1440.675,1456 1470.675,1456 1470.675,1476 1440.675,1476" fill="none" stroke="var(--_line)" stroke-width="0.75" marker-end="url(#seq-arrow)" />
<text x="1476.675" y="1466" dy="0.35em" font-size="11" font-weight="400" fill="var(--_text-muted)">loadSnapshot()</text>
<polyline points="1440.675,1526 1470.675,1526 1470.675,1546 1440.675,1546" fill="none" stroke="var(--_line)" stroke-width="0.75" marker-end="url(#seq-arrow)" />
<text x="1476.675" y="1536" dy="0.35em" font-size="11" font-weight="400" fill="var(--_text-muted)">resumeVM()</text>
<line x1="1440.675" y1="1596" x2="766.575" y2="1596" stroke="var(--_line)" stroke-width="0.75" stroke-dasharray="6 4" marker-end="url(#seq-arrow)" />
<text x="1103.625" y="1590" text-anchor="middle" font-size="11" font-weight="400" fill="var(--_text-muted)">VM resumed</text>
<line x1="766.575" y1="1636" x2="1580.675" y2="1636" stroke="var(--_line)" stroke-width="0.75" marker-end="url(#seq-arrow)" />
<text x="1173.625" y="1630" text-anchor="middle" font-size="11" font-weight="400" fill="var(--_text-muted)">POST /init</text>
<line x1="1580.675" y1="1676" x2="766.575" y2="1676" stroke="var(--_line)" stroke-width="0.75" stroke-dasharray="6 4" marker-end="url(#seq-arrow)" />
<text x="1173.625" y="1670" text-anchor="middle" font-size="11" font-weight="400" fill="var(--_text-muted)">204 No Content</text>
<polyline points="766.575,1716 796.575,1716 796.575,1736 766.575,1736" fill="none" stroke="var(--_line)" stroke-width="0.75" marker-end="url(#seq-arrow)" />
<text x="802.575" y="1726" dy="0.35em" font-size="11" font-weight="400" fill="var(--_text-muted)">MarkRunning()</text>
<line x1="766.575" y1="1786" x2="583.75" y2="1786" stroke="var(--_line)" stroke-width="0.75" stroke-dasharray="6 4" marker-end="url(#seq-arrow)" />
<text x="675.1625" y="1780" text-anchor="middle" font-size="11" font-weight="400" fill="var(--_text-muted)">SandboxCreateResponse</text>
<line x1="583.75" y1="1826" x2="411.65000000000003" y2="1826" stroke="var(--_line)" stroke-width="0.75" stroke-dasharray="6 4" marker-end="url(#seq-arrow)" />
<text x="497.70000000000005" y="1820" text-anchor="middle" font-size="11" font-weight="400" fill="var(--_text-muted)">success</text>
<polyline points="411.65000000000003,1866 441.65000000000003,1866 441.65000000000003,1886 411.65000000000003,1886" fill="none" stroke="var(--_line)" stroke-width="0.75" marker-end="url(#seq-arrow)" />
<text x="447.65000000000003" y="1876" dy="0.35em" font-size="11" font-weight="400" fill="var(--_text-muted)">sandboxStore.Add()</text>
<line x1="411.65000000000003" y1="1936" x2="243.12500000000003" y2="1936" stroke="var(--_line)" stroke-width="0.75" stroke-dasharray="6 4" marker-end="url(#seq-arrow)" />
<text x="327.38750000000005" y="1930" text-anchor="middle" font-size="11" font-weight="400" fill="var(--_text-muted)">API sandbox model</text>
<line x1="243.12500000000003" y1="1976" x2="88.9" y2="1976" stroke="var(--_line)" stroke-width="0.75" stroke-dasharray="6 4" marker-end="url(#seq-arrow)" />
<text x="166.01250000000002" y="1970" text-anchor="middle" font-size="11" font-weight="400" fill="var(--_text-muted)">sandboxId / domain / envdVersion / tokens</text>
<rect x="1002.605" y="1640" width="342.04" height="27" fill="var(--_group-hdr)" stroke="var(--_node-stroke)" stroke-width="0.75" />
<polygon points="1338.645,1640 1344.645,1646 1338.645,1646" fill="var(--_inner-stroke)" />
<text x="1173.625" y="1653.5" text-anchor="middle" dy="0.35em" font-size="11" font-weight="400" fill="var(--_text-muted)">注入 envVars / accessToken / defaultUser / workdir / mounts</text>
<rect x="30" y="30" width="117.80000000000001" height="40" rx="4" ry="4" fill="var(--_node-fill)" stroke="var(--_node-stroke)" stroke-width="1" />
<text x="88.9" y="50" text-anchor="middle" dy="0.35em" font-size="13" font-weight="500" fill="var(--_text)">SDK / Client</text>
<rect x="187.8" y="30" width="110.65" height="40" rx="4" ry="4" fill="var(--_node-fill)" stroke="var(--_node-stroke)" stroke-width="1" />
<text x="243.12500000000003" y="50" text-anchor="middle" dy="0.35em" font-size="13" font-weight="500" fill="var(--_text)">API Handler</text>
<rect x="338.45000000000005" y="30" width="146.4" height="40" rx="4" ry="4" fill="var(--_node-fill)" stroke="var(--_node-stroke)" stroke-width="1" />
<text x="411.65000000000003" y="50" text-anchor="middle" dy="0.35em" font-size="13" font-weight="500" fill="var(--_text)">API Orchestrator</text>
<rect x="524.85" y="30" width="117.80000000000001" height="40" rx="4" ry="4" fill="var(--_node-fill)" stroke="var(--_node-stroke)" stroke-width="1" />
<text x="583.75" y="50" text-anchor="middle" dy="0.35em" font-size="13" font-weight="500" fill="var(--_text)">Node Manager</text>
<rect x="682.6500000000001" y="30" width="167.85000000000002" height="40" rx="4" ry="4" fill="var(--_node-fill)" stroke="var(--_node-stroke)" stroke-width="1" />
<text x="766.575" y="50" text-anchor="middle" dy="0.35em" font-size="13" font-weight="500" fill="var(--_text)">Orchestrator Server</text>
<rect x="890.5" y="30" width="132.10000000000002" height="40" rx="4" ry="4" fill="var(--_node-fill)" stroke="var(--_node-stroke)" stroke-width="1" />
<text x="956.5500000000001" y="50" text-anchor="middle" dy="0.35em" font-size="13" font-weight="500" fill="var(--_text)">Template Cache</text>
<rect x="1062.6" y="30" width="117.80000000000001" height="40" rx="4" ry="4" fill="var(--_node-fill)" stroke="var(--_node-stroke)" stroke-width="1" />
<text x="1121.5" y="50" text-anchor="middle" dy="0.35em" font-size="13" font-weight="500" fill="var(--_text)">Network Pool</text>
<rect x="1220.4" y="30" width="124.95" height="40" rx="4" ry="4" fill="var(--_node-fill)" stroke="var(--_node-stroke)" stroke-width="1" />
<text x="1282.875" y="50" text-anchor="middle" dy="0.35em" font-size="13" font-weight="500" fill="var(--_text)">Rootfs + UFFD</text>
<rect x="1385.35" y="30" width="110.65" height="40" rx="4" ry="4" fill="var(--_node-fill)" stroke="var(--_node-stroke)" stroke-width="1" />
<text x="1440.675" y="50" text-anchor="middle" dy="0.35em" font-size="13" font-weight="500" fill="var(--_text)">Firecracker</text>
<rect x="1540.675" y="30" width="80" height="40" rx="4" ry="4" fill="var(--_node-fill)" stroke="var(--_node-stroke)" stroke-width="1" />
<text x="1580.675" y="50" text-anchor="middle" dy="0.35em" font-size="13" font-weight="500" fill="var(--_text)">envd</text>
</svg>