<svg xmlns="http://www.w3.org/2000/svg" viewBox="0 0 1993.5000000000002 516" width="1993.5000000000002" height="516" style="--bg:#fdf6e3;--fg:#657b83;--line:#93a1a1;--accent:#268bd2;--muted:#93a1a1;background:var(--bg)">
<style>
  @import url('https://fonts.googleapis.com/css2?family=Inter:wght@400;500;600;700&amp;display=swap');
  text { font-family: 'Inter', system-ui, sans-serif; }
  svg {
    /* Derived from --bg and --fg (overridable via --line, --accent, etc.) */
    --_text:          var(--fg);
    --_text-sec:      var(--muted, color-mix(in srgb, var(--fg) 60%, var(--bg)));
    --_text-muted:    var(--muted, color-mix(in srgb, var(--fg) 40%, var(--bg)));
    --_text-faint:    color-mix(in srgb, var(--fg) 25%, var(--bg));
    --_line:          var(--line, color-mix(in srgb, var(--fg) 30%, var(--bg)));
    --_arrow:         var(--accent, color-mix(in srgb, var(--fg) 50%, var(--bg)));
    --_node-fill:     var(--surface, color-mix(in srgb, var(--fg) 3%, var(--bg)));
    --_node-stroke:   var(--border, color-mix(in srgb, var(--fg) 20%, var(--bg)));
    --_group-fill:    var(--bg);
    --_group-hdr:     color-mix(in srgb, var(--fg) 5%, var(--bg));
    --_inner-stroke:  color-mix(in srgb, var(--fg) 12%, var(--bg));
    --_key-badge:     color-mix(in srgb, var(--fg) 10%, var(--bg));
  }
</style>
<defs>
  <marker id="arrowhead" markerWidth="8" markerHeight="4.8" refX="8" refY="2.4" orient="auto">
    <polygon points="0 0, 8 2.4, 0 4.8" fill="var(--_arrow)" />
  </marker>
  <marker id="arrowhead-start" markerWidth="8" markerHeight="4.8" refX="0" refY="2.4" orient="auto-start-reverse">
    <polygon points="8 0, 0 2.4, 8 4.8" fill="var(--_arrow)" />
  </marker>
</defs>
<rect x="40" y="40" width="1302.0500000000002" height="176" rx="0" ry="0" fill="var(--_group-fill)" stroke="var(--_node-stroke)" stroke-width="1" />
<rect x="40" y="40" width="1302.0500000000002" height="28" rx="0" ry="0" fill="var(--_group-hdr)" stroke="var(--_node-stroke)" stroke-width="1" />
<text x="52" y="54" dy="0.35em" font-size="12" font-weight="600" fill="var(--_text-sec)">&quot;fusedev: FUSE 挂载路径&quot;</text>
<rect x="40" y="200" width="1913.5000000000002" height="176" rx="0" ry="0" fill="var(--_group-fill)" stroke="var(--_node-stroke)" stroke-width="1" />
<rect x="40" y="200" width="1913.5000000000002" height="28" rx="0" ry="0" fill="var(--_group-hdr)" stroke="var(--_node-stroke)" stroke-width="1" />
<text x="52" y="214" dy="0.35em" font-size="12" font-weight="600" fill="var(--_text-sec)">&quot;fscache: EROFS + 懒加载路径&quot;</text>
<rect x="40" y="360" width="1302.0500000000002" height="116" rx="0" ry="0" fill="var(--_group-fill)" stroke="var(--_node-stroke)" stroke-width="1" />
<rect x="40" y="360" width="1302.0500000000002" height="28" rx="0" ry="0" fill="var(--_group-hdr)" stroke="var(--_node-stroke)" stroke-width="1" />
<text x="52" y="374" dy="0.35em" font-size="12" font-weight="600" fill="var(--_text-sec)">&quot;blockdev: EROFS + 块设备路径&quot;</text>
<polyline points="199.25,146 319.25,146" fill="none" stroke="var(--_line)" stroke-width="0.75" marker-end="url(#arrowhead)" />
<polyline points="458.5,146 582.075,146" fill="none" stroke="var(--_line)" stroke-width="0.75" marker-end="url(#arrowhead)" />
<polyline points="721.325,146 894.9499999999999,146" fill="none" stroke="var(--_line)" stroke-width="0.75" marker-end="url(#arrowhead)" />
<polyline points="969.85,146 1039.9,146 1039.9,116 1182.8000000000002,116" fill="none" stroke="var(--_line)" stroke-width="0.75" marker-end="url(#arrowhead)" />
<polyline points="969.85,146 1039.9,146 1039.9,176 1139.9,176" fill="none" stroke="var(--_line)" stroke-width="0.75" marker-end="url(#arrowhead)" />
<polyline points="199.25,306 319.25,306" fill="none" stroke="var(--_line)" stroke-width="0.75" marker-end="url(#arrowhead)" />
<polyline points="458.5,306 578.5,306" fill="none" stroke="var(--_line)" stroke-width="0.75" marker-end="url(#arrowhead)" />
<polyline points="724.9000000000001,306 873.5,306" fill="none" stroke="var(--_line)" stroke-width="0.75" marker-end="url(#arrowhead)" />
<polyline points="991.3,306 1039.9,306 1039.9,276 1164.9250000000002,276" fill="none" stroke="var(--_line)" stroke-width="0.75" marker-end="url(#arrowhead)" />
<polyline points="1297.025,276 1442.0500000000002,276" fill="none" stroke="var(--_line)" stroke-width="0.75" marker-end="url(#arrowhead)" />
<polyline points="991.3,306 1039.9,306 1039.9,336 1182.8000000000002,336" fill="none" stroke="var(--_line)" stroke-width="0.75" marker-end="url(#arrowhead)" />
<polyline points="1631.3500000000004,276 1751.3500000000001,276" fill="none" stroke="var(--_line)" stroke-width="0.75" marker-end="url(#arrowhead)" />
<polyline points="199.25,436 319.25,436" fill="none" stroke="var(--_line)" stroke-width="0.75" marker-end="url(#arrowhead)" />
<polyline points="458.5,436 578.5,436" fill="none" stroke="var(--_line)" stroke-width="0.75" marker-end="url(#arrowhead)" />
<polyline points="724.9000000000001,436 844.9,436" fill="none" stroke="var(--_line)" stroke-width="0.75" marker-end="url(#arrowhead)" />
<polyline points="1019.9,436 1143.4750000000001,436" fill="none" stroke="var(--_line)" stroke-width="0.75" marker-end="url(#arrowhead)" />
<rect x="60" y="128" width="139.25" height="36" rx="0" ry="0" fill="var(--_node-fill)" stroke="var(--_node-stroke)" stroke-width="0.75" />
<rect x="319.25" y="128" width="139.25" height="36" rx="0" ry="0" fill="var(--_node-fill)" stroke="var(--_node-stroke)" stroke-width="0.75" />
<rect x="582.075" y="128" width="139.25" height="36" rx="0" ry="0" fill="var(--_node-fill)" stroke="var(--_node-stroke)" stroke-width="0.75" />
<rect x="894.9499999999999" y="128" width="74.9" height="36" rx="0" ry="0" fill="var(--_node-fill)" stroke="var(--_node-stroke)" stroke-width="0.75" />
<rect x="1182.8000000000002" y="98" width="96.35000000000001" height="36" rx="0" ry="0" fill="var(--_node-fill)" stroke="var(--_node-stroke)" stroke-width="0.75" />
<rect x="1139.9" y="158" width="182.15" height="36" rx="0" ry="0" fill="var(--_node-fill)" stroke="var(--_node-stroke)" stroke-width="0.75" />
<rect x="60" y="288" width="139.25" height="36" rx="0" ry="0" fill="var(--_node-fill)" stroke="var(--_node-stroke)" stroke-width="0.75" />
<rect x="319.25" y="288" width="139.25" height="36" rx="0" ry="0" fill="var(--_node-fill)" stroke="var(--_node-stroke)" stroke-width="0.75" />
<rect x="578.5" y="288" width="146.4" height="36" rx="0" ry="0" fill="var(--_node-fill)" stroke="var(--_node-stroke)" stroke-width="0.75" />
<rect x="873.5" y="288" width="117.80000000000001" height="36" rx="0" ry="0" fill="var(--_node-fill)" stroke="var(--_node-stroke)" stroke-width="0.75" />
<rect x="1164.9250000000002" y="258" width="132.10000000000002" height="36" rx="0" ry="0" fill="var(--_node-fill)" stroke="var(--_node-stroke)" stroke-width="0.75" />
<rect x="1442.0500000000002" y="258" width="189.3" height="36" rx="0" ry="0" fill="var(--_node-fill)" stroke="var(--_node-stroke)" stroke-width="0.75" />
<rect x="1182.8000000000002" y="318" width="96.35000000000001" height="36" rx="0" ry="0" fill="var(--_node-fill)" stroke="var(--_node-stroke)" stroke-width="0.75" />
<rect x="1751.3500000000001" y="258" width="182.15" height="36" rx="0" ry="0" fill="var(--_node-fill)" stroke="var(--_node-stroke)" stroke-width="0.75" />
<rect x="60" y="418" width="139.25" height="36" rx="0" ry="0" fill="var(--_node-fill)" stroke="var(--_node-stroke)" stroke-width="0.75" />
<rect x="319.25" y="418" width="139.25" height="36" rx="0" ry="0" fill="var(--_node-fill)" stroke="var(--_node-stroke)" stroke-width="0.75" />
<rect x="578.5" y="418" width="146.4" height="36" rx="0" ry="0" fill="var(--_node-fill)" stroke="var(--_node-stroke)" stroke-width="0.75" />
<rect x="844.9" y="418" width="175" height="36" rx="0" ry="0" fill="var(--_node-fill)" stroke="var(--_node-stroke)" stroke-width="0.75" />
<rect x="1143.4750000000001" y="418" width="175" height="36" rx="0" ry="0" fill="var(--_node-fill)" stroke="var(--_node-stroke)" stroke-width="0.75" />
<text x="129.625" y="146" text-anchor="middle" dy="0.35em" font-size="13" font-weight="500" fill="var(--_text)">Container / App</text>
<text x="388.875" y="146" text-anchor="middle" dy="0.35em" font-size="13" font-weight="500" fill="var(--_text)">overlayfs lower</text>
<text x="651.7" y="146" text-anchor="middle" dy="0.35em" font-size="13" font-weight="500" fill="var(--_text)">FUSE mountpoint</text>
<text x="932.4" y="146" text-anchor="middle" dy="0.35em" font-size="13" font-weight="500" fill="var(--_text)">nydusd</text>
<text x="1230.9750000000001" y="116" text-anchor="middle" dy="0.35em" font-size="13" font-weight="500" fill="var(--_text)">bootstrap</text>
<text x="1230.9750000000001" y="176" text-anchor="middle" dy="0.35em" font-size="13" font-weight="500" fill="var(--_text)">data blobs / registry</text>
<text x="129.625" y="306" text-anchor="middle" dy="0.35em" font-size="13" font-weight="500" fill="var(--_text)">Container / App</text>
<text x="388.875" y="306" text-anchor="middle" dy="0.35em" font-size="13" font-weight="500" fill="var(--_text)">overlayfs lower</text>
<text x="651.7" y="306" text-anchor="middle" dy="0.35em" font-size="13" font-weight="500" fill="var(--_text)">EROFS mountpoint</text>
<text x="932.4" y="306" text-anchor="middle" dy="0.35em" font-size="13" font-weight="500" fill="var(--_text)">kernel EROFS</text>
<text x="1230.9750000000001" y="276" text-anchor="middle" dy="0.35em" font-size="13" font-weight="500" fill="var(--_text)">kernel fscache</text>
<text x="1536.7000000000003" y="276" text-anchor="middle" dy="0.35em" font-size="13" font-weight="500" fill="var(--_text)">nydusd fscache service</text>
<text x="1230.9750000000001" y="336" text-anchor="middle" dy="0.35em" font-size="13" font-weight="500" fill="var(--_text)">bootstrap</text>
<text x="1842.4250000000002" y="276" text-anchor="middle" dy="0.35em" font-size="13" font-weight="500" fill="var(--_text)">data blobs / registry</text>
<text x="129.625" y="436" text-anchor="middle" dy="0.35em" font-size="13" font-weight="500" fill="var(--_text)">Container / App</text>
<text x="388.875" y="436" text-anchor="middle" dy="0.35em" font-size="13" font-weight="500" fill="var(--_text)">overlayfs lower</text>
<text x="651.7" y="436" text-anchor="middle" dy="0.35em" font-size="13" font-weight="500" fill="var(--_text)">EROFS mountpoint</text>
<text x="932.4" y="436" text-anchor="middle" dy="0.35em" font-size="13" font-weight="500" fill="var(--_text)">block device backend</text>
<text x="1230.9750000000001" y="436" text-anchor="middle" dy="0.35em" font-size="13" font-weight="500" fill="var(--_text)">processed image data</text>
</svg>