<svg xmlns="http://www.w3.org/2000/svg" viewBox="0 0 490.57 547" width="490.57" height="547" style="--bg:#ffffff;--fg:#1f2328;--line:#d1d9e0;--accent:#0969da;--muted:#59636e;background:var(--bg)">
<style>
  @import url('https://fonts.googleapis.com/css2?family=Inter:wght@400;500;600;700&amp;display=swap');
  text { font-family: 'Inter', system-ui, sans-serif; }
  svg {
    /* Derived from --bg and --fg (overridable via --line, --accent, etc.) */
    --_text:          var(--fg);
    --_text-sec:      var(--muted, color-mix(in srgb, var(--fg) 60%, var(--bg)));
    --_text-muted:    var(--muted, color-mix(in srgb, var(--fg) 40%, var(--bg)));
    --_text-faint:    color-mix(in srgb, var(--fg) 25%, var(--bg));
    --_line:          var(--line, color-mix(in srgb, var(--fg) 30%, var(--bg)));
    --_arrow:         var(--accent, color-mix(in srgb, var(--fg) 50%, var(--bg)));
    --_node-fill:     var(--surface, color-mix(in srgb, var(--fg) 3%, var(--bg)));
    --_node-stroke:   var(--border, color-mix(in srgb, var(--fg) 20%, var(--bg)));
    --_group-fill:    var(--bg);
    --_group-hdr:     color-mix(in srgb, var(--fg) 5%, var(--bg));
    --_inner-stroke:  color-mix(in srgb, var(--fg) 12%, var(--bg));
    --_key-badge:     color-mix(in srgb, var(--fg) 10%, var(--bg));
  }
</style>
<defs>
  <marker id="arrowhead" markerWidth="8" markerHeight="4.8" refX="8" refY="2.4" orient="auto">
    <polygon points="0 0, 8 2.4, 0 4.8" fill="var(--_arrow)" />
  </marker>
  <marker id="arrowhead-start" markerWidth="8" markerHeight="4.8" refX="0" refY="2.4" orient="auto-start-reverse">
    <polygon points="8 0, 0 2.4, 8 4.8" fill="var(--_arrow)" />
  </marker>
</defs>
<polyline points="204.68500000000003,76 204.68500000000003,116" fill="none" stroke="var(--_line)" stroke-width="0.75" marker-end="url(#arrowhead)" />
<polyline points="204.68500000000003,152 204.68500000000003,209" fill="none" stroke="var(--_line)" stroke-width="0.75" marker-end="url(#arrowhead)" />
<polyline points="204.68500000000003,245 204.68500000000003,273.5 137.77500000000003,273.5 137.77500000000003,320 167.235,320" fill="none" stroke="var(--_line)" stroke-width="0.75" marker-end="url(#arrowhead)" />
<polyline points="204.68500000000003,302 204.68500000000003,273.5 271.595,273.5 271.595,227 245.71000000000004,227" fill="none" stroke="var(--_line)" stroke-width="0.75" marker-end="url(#arrowhead)" />
<polyline points="204.68500000000003,245 204.68500000000003,273.5 61.160000000000025,273.5 61.160000000000025,413 123.35500000000002,413" fill="none" stroke="var(--_line)" stroke-width="0.75" marker-end="url(#arrowhead)" />
<polyline points="204.68500000000003,338 204.68500000000003,413 205.40500000000003,413" fill="none" stroke="var(--_line)" stroke-width="0.75" marker-end="url(#arrowhead)" />
<polyline points="204.68500000000003,245 204.68500000000003,273.5 359.65000000000003,273.5 359.65000000000003,413 349.93,413" fill="none" stroke="var(--_line)" stroke-width="0.75" marker-end="url(#arrowhead)" />
<polyline points="204.68500000000003,338 204.68500000000003,366.5 415.11,366.5 415.11,413 424.83,413" fill="none" stroke="var(--_line)" stroke-width="0.75" marker-end="url(#arrowhead)" />
<polyline points="164.38000000000002,431 164.38000000000002,471" fill="none" stroke="var(--_line)" stroke-width="0.75" marker-end="url(#arrowhead)" />
<polyline points="387.38,431 387.38,471" fill="none" stroke="var(--_line)" stroke-width="0.75" marker-end="url(#arrowhead)" />
<rect x="179.52500000000003" y="167" width="50.32" height="27" rx="4" ry="4" fill="var(--bg)" stroke="var(--_inner-stroke)" stroke-width="0.5" />
<text x="204.68500000000003" y="180.5" text-anchor="middle" dy="0.35em" font-size="11" font-weight="400" fill="var(--_text-muted)">create</text>
<rect x="81.15500000000003" y="260" width="113.24000000000001" height="27" rx="4" ry="4" fill="var(--bg)" stroke="var(--_inner-stroke)" stroke-width="0.5" />
<text x="137.77500000000003" y="273.5" text-anchor="middle" dy="0.35em" font-size="11" font-weight="400" fill="var(--_text-muted)">pause / autoPause</text>
<rect x="206.39500000000004" y="260" width="130.4" height="27" rx="4" ry="4" fill="var(--bg)" stroke="var(--_inner-stroke)" stroke-width="0.5" />
<text x="271.595" y="273.5" text-anchor="middle" dy="0.35em" font-size="11" font-weight="400" fill="var(--_text-muted)">connect(auto resume)</text>
<rect x="36.00000000000003" y="306.5" width="50.32" height="27" rx="4" ry="4" fill="var(--bg)" stroke="var(--_inner-stroke)" stroke-width="0.5" />
<text x="61.160000000000025" y="320" text-anchor="middle" dy="0.35em" font-size="11" font-weight="400" fill="var(--_text-muted)">TTL 到期</text>
<rect x="179.52500000000003" y="353" width="50.32" height="27" rx="4" ry="4" fill="var(--bg)" stroke="var(--_inner-stroke)" stroke-width="0.5" />
<text x="204.68500000000003" y="366.5" text-anchor="middle" dy="0.35em" font-size="11" font-weight="400" fill="var(--_text-muted)">TTL 到期</text>
<rect x="320.19000000000005" y="306.5" width="78.92" height="27" rx="4" ry="4" fill="var(--bg)" stroke="var(--_inner-stroke)" stroke-width="0.5" />
<text x="359.65000000000003" y="320" text-anchor="middle" dy="0.35em" font-size="11" font-weight="400" fill="var(--_text-muted)">kill/delete</text>
<rect x="375.65000000000003" y="353" width="78.92" height="27" rx="4" ry="4" fill="var(--bg)" stroke="var(--_inner-stroke)" stroke-width="0.5" />
<text x="415.11" y="366.5" text-anchor="middle" dy="0.35em" font-size="11" font-weight="400" fill="var(--_text-muted)">kill/delete</text>
<circle cx="204.68500000000003" cy="58" r="16" fill="var(--_text)" stroke="none" />
<rect x="160.08500000000004" y="116" width="89.2" height="36" rx="6" ry="6" fill="var(--_node-fill)" stroke="var(--_node-stroke)" stroke-width="0.75" />
<rect x="163.66000000000003" y="209" width="82.05000000000001" height="36" rx="6" ry="6" fill="var(--_node-fill)" stroke="var(--_node-stroke)" stroke-width="0.75" />
<rect x="167.235" y="302" width="74.9" height="36" rx="6" ry="6" fill="var(--_node-fill)" stroke="var(--_node-stroke)" stroke-width="0.75" />
<rect x="123.35500000000002" y="395" width="82.05000000000001" height="36" rx="6" ry="6" fill="var(--_node-fill)" stroke="var(--_node-stroke)" stroke-width="0.75" />
<rect x="349.93" y="395" width="74.9" height="36" rx="6" ry="6" fill="var(--_node-fill)" stroke="var(--_node-stroke)" stroke-width="0.75" />
<circle cx="164.38000000000002" cy="489" r="16" fill="none" stroke="var(--_text)" stroke-width="1.5" />
<circle cx="164.38000000000002" cy="489" r="12" fill="var(--_text)" stroke="none" />
<circle cx="387.38" cy="489" r="16" fill="none" stroke="var(--_text)" stroke-width="1.5" />
<circle cx="387.38" cy="489" r="12" fill="var(--_text)" stroke="none" />

<text x="204.68500000000003" y="134" text-anchor="middle" dy="0.35em" font-size="13" font-weight="500" fill="var(--_text)">Creating</text>
<text x="204.68500000000003" y="227" text-anchor="middle" dy="0.35em" font-size="13" font-weight="500" fill="var(--_text)">Running</text>
<text x="204.685" y="320" text-anchor="middle" dy="0.35em" font-size="13" font-weight="500" fill="var(--_text)">Paused</text>
<text x="164.38000000000002" y="413" text-anchor="middle" dy="0.35em" font-size="13" font-weight="500" fill="var(--_text)">Expired</text>
<text x="387.38" y="413" text-anchor="middle" dy="0.35em" font-size="13" font-weight="500" fill="var(--_text)">Killed</text>


</svg>